{
 "cells": [
  {
   "cell_type": "code",
   "execution_count": 1,
   "id": "5435b831-4b11-4301-9fc2-d877a026f88a",
   "metadata": {},
   "outputs": [
    {
     "name": "stdout",
     "output_type": "stream",
     "text": [
      "Collecting yt-dlp\n",
      "  Downloading yt_dlp-2025.10.22-py3-none-any.whl.metadata (176 kB)\n",
      "Downloading yt_dlp-2025.10.22-py3-none-any.whl (3.2 MB)\n",
      "   ---------------------------------------- 0.0/3.2 MB ? eta -:--:--\n",
      "   --------- ------------------------------ 0.8/3.2 MB 8.5 MB/s eta 0:00:01\n",
      "   ---------------- ----------------------- 1.3/3.2 MB 3.9 MB/s eta 0:00:01\n",
      "   ---------------------- ----------------- 1.8/3.2 MB 3.4 MB/s eta 0:00:01\n",
      "   ------------------------- -------------- 2.1/3.2 MB 3.0 MB/s eta 0:00:01\n",
      "   ------------------------- -------------- 2.1/3.2 MB 3.0 MB/s eta 0:00:01\n",
      "   ------------------------- -------------- 2.1/3.2 MB 3.0 MB/s eta 0:00:01\n",
      "   ----------------------------- ---------- 2.4/3.2 MB 1.8 MB/s eta 0:00:01\n",
      "   ----------------------------------- ---- 2.9/3.2 MB 1.8 MB/s eta 0:00:01\n",
      "   -------------------------------------- - 3.1/3.2 MB 1.8 MB/s eta 0:00:01\n",
      "   -------------------------------------- - 3.1/3.2 MB 1.8 MB/s eta 0:00:01\n",
      "   ---------------------------------------- 3.2/3.2 MB 1.5 MB/s  0:00:02\n",
      "Installing collected packages: yt-dlp\n",
      "Successfully installed yt-dlp-2025.10.22\n"
     ]
    }
   ],
   "source": [
    "!pip install yt-dlp"
   ]
  },
  {
   "cell_type": "code",
   "execution_count": 2,
   "id": "257af417-f26e-4180-a0c0-88e15db3247e",
   "metadata": {},
   "outputs": [
    {
     "name": "stdout",
     "output_type": "stream",
     "text": [
      "[youtube] Extracting URL: https://youtube.com/shorts/c39SY28RKI8?si=0cdvgOQuV7uSQFIP\n",
      "[youtube] c39SY28RKI8: Downloading webpage\n",
      "[youtube] c39SY28RKI8: Downloading android sdkless player API JSON\n",
      "[youtube] c39SY28RKI8: Downloading tv client config\n",
      "[youtube] c39SY28RKI8: Downloading player 65578ad1-main\n",
      "[youtube] c39SY28RKI8: Downloading tv player API JSON\n",
      "[youtube] c39SY28RKI8: Downloading web safari player API JSON\n",
      "[youtube] c39SY28RKI8: Downloading m3u8 information\n",
      "[info] c39SY28RKI8: Downloading 1 format(s): 96\n",
      "[download] Sleeping 4.00 seconds as required by the site...\n",
      "[hlsnative] Downloading m3u8 manifest\n",
      "[hlsnative] Total fragments: 4\n",
      "[download] Destination: input.mp4\n",
      "\n",
      "[download] 100.0% of ~   1.00KiB at    427.86B/s ETA Unknown (frag 0/4)\n",
      "[download]  75.0% of ~   4.00KiB at    427.86B/s ETA Unknown (frag 0/4)\n",
      "[download]  58.3% of ~  12.00KiB at    427.86B/s ETA Unknown (frag 0/4)\n",
      "[download]  53.6% of ~  28.00KiB at    427.86B/s ETA Unknown (frag 0/4)\n",
      "[download]  51.7% of ~  60.00KiB at    427.86B/s ETA Unknown (frag 0/4)\n",
      "[download]  50.8% of ~ 124.00KiB at    427.86B/s ETA Unknown (frag 0/4)\n",
      "[download]  50.4% of ~ 252.00KiB at    427.86B/s ETA Unknown (frag 0/4)\n",
      "[download]  50.2% of ~ 508.00KiB at    427.86B/s ETA Unknown (frag 0/4)\n",
      "[download]  50.1% of ~1020.00KiB at  178.76KiB/s ETA Unknown (frag 0/4)\n",
      "[download]  50.0% of ~   2.00MiB at  397.93KiB/s ETA 00:01 (frag 0/4)  \n",
      "[download]  50.0% of ~   4.00MiB at  580.91KiB/s ETA 00:01 (frag 0/4)\n",
      "[download]  35.4% of ~   8.00MiB at  715.99KiB/s ETA 00:01 (frag 0/4)\n",
      "[download]  12.5% of ~  22.65MiB at  715.99KiB/s ETA 00:01 (frag 1/4)\n",
      "[download]  50.0% of ~   5.66MiB at  874.87KiB/s ETA 00:01 (frag 1/4)\n",
      "[download]  50.0% of ~   5.67MiB at  874.87KiB/s ETA 00:01 (frag 1/4)\n",
      "[download]  50.1% of ~   5.67MiB at  874.87KiB/s ETA 00:01 (frag 1/4)\n",
      "[download]  50.1% of ~   5.68MiB at  874.87KiB/s ETA 00:01 (frag 1/4)\n",
      "[download]  50.3% of ~   5.69MiB at  874.87KiB/s ETA 00:01 (frag 1/4)\n",
      "[download]  50.5% of ~   5.72MiB at  874.87KiB/s ETA 00:01 (frag 1/4)\n",
      "[download]  51.1% of ~   5.79MiB at  874.87KiB/s ETA 00:01 (frag 1/4)\n",
      "[download]  52.1% of ~   5.91MiB at 1005.47KiB/s ETA 00:01 (frag 1/4)\n",
      "[download]  54.1% of ~   6.16MiB at    1.04MiB/s ETA 00:01 (frag 1/4)\n",
      "[download]  57.5% of ~   6.66MiB at    1.11MiB/s ETA 00:01 (frag 1/4)\n",
      "[download]  63.1% of ~   7.66MiB at    1.14MiB/s ETA 00:01 (frag 1/4)\n",
      "[download]  59.3% of ~   9.66MiB at    1.24MiB/s ETA 00:01 (frag 1/4)\n",
      "[download]  33.2% of ~  17.24MiB at    1.24MiB/s ETA 00:01 (frag 2/4)\n",
      "[download]  75.0% of ~   7.64MiB at    1.24MiB/s ETA 00:01 (frag 2/4)\n",
      "[download]  75.0% of ~   7.64MiB at    1.24MiB/s ETA 00:01 (frag 2/4)\n",
      "[download]  75.1% of ~   7.64MiB at    1.24MiB/s ETA 00:01 (frag 2/4)\n",
      "[download]  75.1% of ~   7.64MiB at    1.24MiB/s ETA 00:01 (frag 2/4)\n",
      "[download]  75.2% of ~   7.65MiB at    1.24MiB/s ETA 00:01 (frag 2/4)\n",
      "[download]  75.4% of ~   7.68MiB at    1.24MiB/s ETA 00:01 (frag 2/4)\n",
      "[download]  75.8% of ~   7.72MiB at    1.24MiB/s ETA 00:01 (frag 2/4)\n",
      "[download]  76.6% of ~   7.80MiB at    1.32MiB/s ETA 00:01 (frag 2/4)\n",
      "[download]  78.1% of ~   7.97MiB at    1.40MiB/s ETA 00:01 (frag 2/4)\n",
      "[download]  81.0% of ~   8.30MiB at    1.43MiB/s ETA 00:01 (frag 2/4)\n",
      "[download]  75.5% of ~   8.97MiB at    1.43MiB/s ETA 00:01 (frag 2/4)\n",
      "[download]  65.0% of ~  10.41MiB at    1.43MiB/s ETA 00:01 (frag 3/4)\n",
      "[download] 100.0% of ~   6.77MiB at    1.43MiB/s ETA 00:01 (frag 3/4)\n",
      "[download] 100.0% of ~   6.77MiB at    1.43MiB/s ETA 00:01 (frag 3/4)\n",
      "[download] 100.0% of ~   6.77MiB at    1.43MiB/s ETA 00:01 (frag 3/4)\n",
      "[download] 100.0% of ~   6.77MiB at    1.43MiB/s ETA 00:01 (frag 4/4)\n",
      "[download] 100% of    6.77MiB in 00:00:05 at 1.24MiB/s               \n"
     ]
    },
    {
     "name": "stderr",
     "output_type": "stream",
     "text": [
      "WARNING: \"-f mp4\" selects the best pre-merged mp4 format which is often not what's intended.\n",
      "         Pre-merged mp4 formats are not available from all sites, or may only be available in lower quality.\n",
      "         To prioritize the best h264 video and aac audio in an mp4 container, use \"-t mp4\" instead.\n",
      "         If you know what you are doing and want a pre-merged mp4 format, use \"-f b[ext=mp4]\" instead to suppress this warning\n",
      "WARNING: [youtube] c39SY28RKI8: Signature extraction failed: Some formats may be missing\n",
      "         player = https://www.youtube.com/s/player/65578ad1/player_ias.vflset/en_US/base.js\n",
      "         Please report this issue on  https://github.com/yt-dlp/yt-dlp/issues?q= , filling out the appropriate issue template. Confirm you are on the latest version using  yt-dlp -U\n",
      "WARNING: [youtube] c39SY28RKI8: Some web_safari client https formats have been skipped as they are missing a url. YouTube is forcing SABR streaming for this client. See  https://github.com/yt-dlp/yt-dlp/issues/12482  for more details\n",
      "WARNING: [youtube] c39SY28RKI8: Some web client https formats have been skipped as they are missing a url. YouTube is forcing SABR streaming for this client. See  https://github.com/yt-dlp/yt-dlp/issues/12482  for more details\n",
      "WARNING: c39SY28RKI8: Possible MPEG-TS in MP4 container or malformed AAC timestamps. Install ffmpeg to fix this automatically\n"
     ]
    }
   ],
   "source": [
    "!yt-dlp -f mp4 \"https://youtube.com/shorts/c39SY28RKI8?si=0cdvgOQuV7uSQFIP\" -o input.mp4"
   ]
  },
  {
   "cell_type": "code",
   "execution_count": 1,
   "id": "5a32079a-00d9-4097-996f-65de64bfda92",
   "metadata": {},
   "outputs": [
    {
     "name": "stdout",
     "output_type": "stream",
     "text": [
      "ffmpeg version 8.0 Copyright (c) 2000-2025 the FFmpeg developers\n",
      "built with clang version 21.1.2\n",
      "configuration: --prefix=/d/bld/ffmpeg_1758923948582/_h_env/Library --cc=clang.exe --cxx=clang++.exe --nm=llvm-nm --ar=llvm-ar --disable-doc --enable-openssl --enable-demuxer=dash --enable-hardcoded-tables --enable-libfreetype --enable-libharfbuzz --enable-libfontconfig --enable-libopenh264 --enable-libdav1d --ld=lld-link --target-os=win64 --enable-cross-compile --toolchain=msvc --host-cc=clang.exe --extra-libs=ucrt.lib --extra-libs=vcruntime.lib --extra-libs=oldnames.lib --strip=llvm-strip --disable-stripping --host-extralibs= --disable-libopenvino --enable-gpl --enable-libx264 --enable-libx265 --enable-libmp3lame --enable-libaom --enable-libsvtav1 --enable-libxml2 --enable-pic --enable-shared --disable-static --enable-version3 --enable-zlib --enable-libvorbis --enable-libopus --enable-librsvg --enable-ffplay --enable-vulkan --enable-libshaderc --pkg-config=/d/bld/ffmpeg_1758923948582/_build_env/Library/bin/pkg-config\n",
      "libavutil      60.  8.100 / 60.  8.100\n",
      "libavcodec     62. 11.100 / 62. 11.100\n",
      "libavformat    62.  3.100 / 62.  3.100\n",
      "libavdevice    62.  1.100 / 62.  1.100\n",
      "libavfilter    11.  4.100 / 11.  4.100\n",
      "libswscale      9.  1.100 /  9.  1.100\n",
      "libswresample   6.  1.100 /  6.  1.100\n",
      "\n",
      "Exiting with exit code 0\n"
     ]
    }
   ],
   "source": [
    "!ffmpeg -version\n"
   ]
  },
  {
   "cell_type": "code",
   "execution_count": 2,
   "id": "6862572f-b1e5-45b6-955e-ac33bbfd6d9b",
   "metadata": {},
   "outputs": [
    {
     "name": "stderr",
     "output_type": "stream",
     "text": [
      "ffmpeg version 8.0 Copyright (c) 2000-2025 the FFmpeg developers\n",
      "  built with clang version 21.1.2\n",
      "  configuration: --prefix=/d/bld/ffmpeg_1758923948582/_h_env/Library --cc=clang.exe --cxx=clang++.exe --nm=llvm-nm --ar=llvm-ar --disable-doc --enable-openssl --enable-demuxer=dash --enable-hardcoded-tables --enable-libfreetype --enable-libharfbuzz --enable-libfontconfig --enable-libopenh264 --enable-libdav1d --ld=lld-link --target-os=win64 --enable-cross-compile --toolchain=msvc --host-cc=clang.exe --extra-libs=ucrt.lib --extra-libs=vcruntime.lib --extra-libs=oldnames.lib --strip=llvm-strip --disable-stripping --host-extralibs= --disable-libopenvino --enable-gpl --enable-libx264 --enable-libx265 --enable-libmp3lame --enable-libaom --enable-libsvtav1 --enable-libxml2 --enable-pic --enable-shared --disable-static --enable-version3 --enable-zlib --enable-libvorbis --enable-libopus --enable-librsvg --enable-ffplay --enable-vulkan --enable-libshaderc --pkg-config=/d/bld/ffmpeg_1758923948582/_build_env/Library/bin/pkg-config\n",
      "  libavutil      60.  8.100 / 60.  8.100\n",
      "  libavcodec     62. 11.100 / 62. 11.100\n",
      "  libavformat    62.  3.100 / 62.  3.100\n",
      "  libavdevice    62.  1.100 / 62.  1.100\n",
      "  libavfilter    11.  4.100 / 11.  4.100\n",
      "  libswscale      9.  1.100 /  9.  1.100\n",
      "  libswresample   6.  1.100 /  6.  1.100\n",
      "Input #0, mpegts, from 'input.mp4':\n",
      "  Duration: 00:00:11.98, start: 0.000000, bitrate: 4740 kb/s\n",
      "  Program 1 \n",
      "  Stream #0:0[0x101]: Audio: aac (LC) ([15][0][0][0] / 0x000F), 44100 Hz, stereo, fltp, 130 kb/s\n",
      "  Stream #0:1[0x100]: Video: h264 (High) ([27][0][0][0] / 0x001B), yuv420p(tv, bt709, progressive), 1080x1920 [SAR 1:1 DAR 9:16], 30 fps, 30 tbr, 90k tbn, start 0.033333\n",
      "Stream mapping:\n",
      "  Stream #0:1 -> #0:0 (h264 (native) -> mjpeg (native))\n",
      "Press [q] to stop, [?] for help\n",
      "Output #0, image2, to 'frames/frame_%04d.jpg':\n",
      "  Metadata:\n",
      "    encoder         : Lavf62.3.100\n",
      "  Stream #0:0: Video: mjpeg, yuv420p(pc, bt709, progressive), 1080x1920 [SAR 1:1 DAR 9:16], q=2-31, 200 kb/s, 5 fps, 5 tbn\n",
      "    Metadata:\n",
      "      encoder         : Lavc62.11.100 mjpeg\n",
      "    Side data:\n",
      "      cpb: bitrate max/min/avg: 0/0/200000 buffer size: 0 vbv_delay: N/A\n",
      "frame=   25 fps=0.0 q=24.8 size=N/A time=00:00:05.00 bitrate=N/A speed= 9.9x elapsed=0:00:00.50    \n",
      "frame=   48 fps= 47 q=24.8 size=N/A time=00:00:09.60 bitrate=N/A speed= 9.4x elapsed=0:00:01.02    \n",
      "frame=   56 fps= 37 q=24.8 size=N/A time=00:00:11.20 bitrate=N/A speed=7.31x elapsed=0:00:01.53    \n",
      "[out#0/image2 @ 00000214E8F6B980] video:4750KiB audio:0KiB subtitle:0KiB other streams:0KiB global headers:0KiB muxing overhead: unknown\n",
      "frame=   60 fps= 37 q=24.8 Lsize=N/A time=00:00:12.00 bitrate=N/A speed=7.45x elapsed=0:00:01.61    \n"
     ]
    }
   ],
   "source": [
    "!ffmpeg -i input.mp4 -vf fps=5 frames/frame_%04d.jpg"
   ]
  },
  {
   "cell_type": "code",
   "execution_count": 5,
   "id": "001ab9f9-50da-403a-b1a7-5fb3702965cd",
   "metadata": {},
   "outputs": [
    {
     "name": "stdout",
     "output_type": "stream",
     "text": [
      "\n",
      "image 1/1 D:\\pranay cse\\IITh\\Task_3\\frames\\frame_0001.jpg: 640x384 12 persons, 235.3ms\n",
      "Speed: 10.2ms preprocess, 235.3ms inference, 16.3ms postprocess per image at shape (1, 3, 640, 384)\n",
      "Results saved to \u001b[1mD:\\pranay cse\\IITh\\Task_3\\processed_frames\\task3_o\\p\u001b[0m\n",
      "\n",
      "image 1/1 D:\\pranay cse\\IITh\\Task_3\\frames\\frame_0002.jpg: 640x384 7 persons, 1 handbag, 30.4ms\n",
      "Speed: 7.0ms preprocess, 30.4ms inference, 11.3ms postprocess per image at shape (1, 3, 640, 384)\n",
      "Results saved to \u001b[1mD:\\pranay cse\\IITh\\Task_3\\processed_frames\\task3_o\\p\u001b[0m\n",
      "\n",
      "image 1/1 D:\\pranay cse\\IITh\\Task_3\\frames\\frame_0003.jpg: 640x384 10 persons, 25.3ms\n",
      "Speed: 3.6ms preprocess, 25.3ms inference, 11.8ms postprocess per image at shape (1, 3, 640, 384)\n",
      "Results saved to \u001b[1mD:\\pranay cse\\IITh\\Task_3\\processed_frames\\task3_o\\p\u001b[0m\n",
      "\n",
      "image 1/1 D:\\pranay cse\\IITh\\Task_3\\frames\\frame_0004.jpg: 640x384 8 persons, 22.3ms\n",
      "Speed: 3.1ms preprocess, 22.3ms inference, 9.7ms postprocess per image at shape (1, 3, 640, 384)\n",
      "Results saved to \u001b[1mD:\\pranay cse\\IITh\\Task_3\\processed_frames\\task3_o\\p\u001b[0m\n",
      "\n",
      "image 1/1 D:\\pranay cse\\IITh\\Task_3\\frames\\frame_0005.jpg: 640x384 9 persons, 16.2ms\n",
      "Speed: 3.5ms preprocess, 16.2ms inference, 13.6ms postprocess per image at shape (1, 3, 640, 384)\n",
      "Results saved to \u001b[1mD:\\pranay cse\\IITh\\Task_3\\processed_frames\\task3_o\\p\u001b[0m\n",
      "\n",
      "image 1/1 D:\\pranay cse\\IITh\\Task_3\\frames\\frame_0006.jpg: 640x384 11 persons, 1 traffic light, 1 backpack, 19.5ms\n",
      "Speed: 3.8ms preprocess, 19.5ms inference, 17.8ms postprocess per image at shape (1, 3, 640, 384)\n",
      "Results saved to \u001b[1mD:\\pranay cse\\IITh\\Task_3\\processed_frames\\task3_o\\p\u001b[0m\n",
      "\n",
      "image 1/1 D:\\pranay cse\\IITh\\Task_3\\frames\\frame_0007.jpg: 640x384 9 persons, 23.4ms\n",
      "Speed: 4.3ms preprocess, 23.4ms inference, 14.1ms postprocess per image at shape (1, 3, 640, 384)\n",
      "Results saved to \u001b[1mD:\\pranay cse\\IITh\\Task_3\\processed_frames\\task3_o\\p\u001b[0m\n",
      "\n",
      "image 1/1 D:\\pranay cse\\IITh\\Task_3\\frames\\frame_0008.jpg: 640x384 9 persons, 18.5ms\n",
      "Speed: 4.0ms preprocess, 18.5ms inference, 11.4ms postprocess per image at shape (1, 3, 640, 384)\n",
      "Results saved to \u001b[1mD:\\pranay cse\\IITh\\Task_3\\processed_frames\\task3_o\\p\u001b[0m\n",
      "\n",
      "image 1/1 D:\\pranay cse\\IITh\\Task_3\\frames\\frame_0009.jpg: 640x384 8 persons, 1 bus, 2 handbags, 18.2ms\n",
      "Speed: 3.0ms preprocess, 18.2ms inference, 10.9ms postprocess per image at shape (1, 3, 640, 384)\n",
      "Results saved to \u001b[1mD:\\pranay cse\\IITh\\Task_3\\processed_frames\\task3_o\\p\u001b[0m\n",
      "\n",
      "image 1/1 D:\\pranay cse\\IITh\\Task_3\\frames\\frame_0010.jpg: 640x384 12 persons, 1 handbag, 16.6ms\n",
      "Speed: 2.7ms preprocess, 16.6ms inference, 12.1ms postprocess per image at shape (1, 3, 640, 384)\n",
      "Results saved to \u001b[1mD:\\pranay cse\\IITh\\Task_3\\processed_frames\\task3_o\\p\u001b[0m\n",
      "\n",
      "image 1/1 D:\\pranay cse\\IITh\\Task_3\\frames\\frame_0011.jpg: 640x384 8 persons, 5 handbags, 19.0ms\n",
      "Speed: 3.4ms preprocess, 19.0ms inference, 22.4ms postprocess per image at shape (1, 3, 640, 384)\n",
      "Results saved to \u001b[1mD:\\pranay cse\\IITh\\Task_3\\processed_frames\\task3_o\\p\u001b[0m\n",
      "\n",
      "image 1/1 D:\\pranay cse\\IITh\\Task_3\\frames\\frame_0012.jpg: 640x384 9 persons, 3 handbags, 24.2ms\n",
      "Speed: 2.8ms preprocess, 24.2ms inference, 13.5ms postprocess per image at shape (1, 3, 640, 384)\n",
      "Results saved to \u001b[1mD:\\pranay cse\\IITh\\Task_3\\processed_frames\\task3_o\\p\u001b[0m\n",
      "\n",
      "image 1/1 D:\\pranay cse\\IITh\\Task_3\\frames\\frame_0013.jpg: 640x384 8 persons, 2 handbags, 22.2ms\n",
      "Speed: 2.4ms preprocess, 22.2ms inference, 10.2ms postprocess per image at shape (1, 3, 640, 384)\n",
      "Results saved to \u001b[1mD:\\pranay cse\\IITh\\Task_3\\processed_frames\\task3_o\\p\u001b[0m\n",
      "\n",
      "image 1/1 D:\\pranay cse\\IITh\\Task_3\\frames\\frame_0014.jpg: 640x384 10 persons, 1 handbag, 23.6ms\n",
      "Speed: 4.6ms preprocess, 23.6ms inference, 12.3ms postprocess per image at shape (1, 3, 640, 384)\n",
      "Results saved to \u001b[1mD:\\pranay cse\\IITh\\Task_3\\processed_frames\\task3_o\\p\u001b[0m\n",
      "\n",
      "image 1/1 D:\\pranay cse\\IITh\\Task_3\\frames\\frame_0015.jpg: 640x384 10 persons, 45.9ms\n",
      "Speed: 10.1ms preprocess, 45.9ms inference, 28.7ms postprocess per image at shape (1, 3, 640, 384)\n",
      "Results saved to \u001b[1mD:\\pranay cse\\IITh\\Task_3\\processed_frames\\task3_o\\p\u001b[0m\n",
      "\n",
      "image 1/1 D:\\pranay cse\\IITh\\Task_3\\frames\\frame_0016.jpg: 640x384 10 persons, 1 traffic light, 1 handbag, 15.7ms\n",
      "Speed: 3.7ms preprocess, 15.7ms inference, 11.8ms postprocess per image at shape (1, 3, 640, 384)\n",
      "Results saved to \u001b[1mD:\\pranay cse\\IITh\\Task_3\\processed_frames\\task3_o\\p\u001b[0m\n",
      "\n",
      "image 1/1 D:\\pranay cse\\IITh\\Task_3\\frames\\frame_0017.jpg: 640x384 8 persons, 1 car, 1 traffic light, 1 handbag, 32.5ms\n",
      "Speed: 4.7ms preprocess, 32.5ms inference, 13.6ms postprocess per image at shape (1, 3, 640, 384)\n",
      "Results saved to \u001b[1mD:\\pranay cse\\IITh\\Task_3\\processed_frames\\task3_o\\p\u001b[0m\n",
      "\n",
      "image 1/1 D:\\pranay cse\\IITh\\Task_3\\frames\\frame_0018.jpg: 640x384 9 persons, 1 bus, 1 handbag, 38.6ms\n",
      "Speed: 4.7ms preprocess, 38.6ms inference, 15.5ms postprocess per image at shape (1, 3, 640, 384)\n",
      "Results saved to \u001b[1mD:\\pranay cse\\IITh\\Task_3\\processed_frames\\task3_o\\p\u001b[0m\n",
      "\n",
      "image 1/1 D:\\pranay cse\\IITh\\Task_3\\frames\\frame_0019.jpg: 640x384 7 persons, 1 bus, 43.2ms\n",
      "Speed: 4.2ms preprocess, 43.2ms inference, 18.6ms postprocess per image at shape (1, 3, 640, 384)\n",
      "Results saved to \u001b[1mD:\\pranay cse\\IITh\\Task_3\\processed_frames\\task3_o\\p\u001b[0m\n",
      "\n",
      "image 1/1 D:\\pranay cse\\IITh\\Task_3\\frames\\frame_0020.jpg: 640x384 6 persons, 1 handbag, 19.0ms\n",
      "Speed: 4.6ms preprocess, 19.0ms inference, 8.7ms postprocess per image at shape (1, 3, 640, 384)\n",
      "Results saved to \u001b[1mD:\\pranay cse\\IITh\\Task_3\\processed_frames\\task3_o\\p\u001b[0m\n",
      "\n",
      "image 1/1 D:\\pranay cse\\IITh\\Task_3\\frames\\frame_0021.jpg: 640x384 9 persons, 74.6ms\n",
      "Speed: 5.2ms preprocess, 74.6ms inference, 35.9ms postprocess per image at shape (1, 3, 640, 384)\n",
      "Results saved to \u001b[1mD:\\pranay cse\\IITh\\Task_3\\processed_frames\\task3_o\\p\u001b[0m\n",
      "\n",
      "image 1/1 D:\\pranay cse\\IITh\\Task_3\\frames\\frame_0022.jpg: 640x384 6 persons, 1 handbag, 36.9ms\n",
      "Speed: 2.8ms preprocess, 36.9ms inference, 12.7ms postprocess per image at shape (1, 3, 640, 384)\n",
      "Results saved to \u001b[1mD:\\pranay cse\\IITh\\Task_3\\processed_frames\\task3_o\\p\u001b[0m\n",
      "\n",
      "image 1/1 D:\\pranay cse\\IITh\\Task_3\\frames\\frame_0023.jpg: 640x384 8 persons, 1 handbag, 33.9ms\n",
      "Speed: 4.1ms preprocess, 33.9ms inference, 17.2ms postprocess per image at shape (1, 3, 640, 384)\n",
      "Results saved to \u001b[1mD:\\pranay cse\\IITh\\Task_3\\processed_frames\\task3_o\\p\u001b[0m\n",
      "\n",
      "image 1/1 D:\\pranay cse\\IITh\\Task_3\\frames\\frame_0024.jpg: 640x384 6 persons, 1 handbag, 28.3ms\n",
      "Speed: 2.7ms preprocess, 28.3ms inference, 9.5ms postprocess per image at shape (1, 3, 640, 384)\n",
      "Results saved to \u001b[1mD:\\pranay cse\\IITh\\Task_3\\processed_frames\\task3_o\\p\u001b[0m\n",
      "\n",
      "image 1/1 D:\\pranay cse\\IITh\\Task_3\\frames\\frame_0025.jpg: 640x384 10 persons, 20.8ms\n",
      "Speed: 4.2ms preprocess, 20.8ms inference, 11.1ms postprocess per image at shape (1, 3, 640, 384)\n",
      "Results saved to \u001b[1mD:\\pranay cse\\IITh\\Task_3\\processed_frames\\task3_o\\p\u001b[0m\n",
      "\n",
      "image 1/1 D:\\pranay cse\\IITh\\Task_3\\frames\\frame_0026.jpg: 640x384 13 persons, 22.3ms\n",
      "Speed: 2.6ms preprocess, 22.3ms inference, 17.2ms postprocess per image at shape (1, 3, 640, 384)\n",
      "Results saved to \u001b[1mD:\\pranay cse\\IITh\\Task_3\\processed_frames\\task3_o\\p\u001b[0m\n",
      "\n",
      "image 1/1 D:\\pranay cse\\IITh\\Task_3\\frames\\frame_0027.jpg: 640x384 14 persons, 34.3ms\n",
      "Speed: 4.6ms preprocess, 34.3ms inference, 17.2ms postprocess per image at shape (1, 3, 640, 384)\n",
      "Results saved to \u001b[1mD:\\pranay cse\\IITh\\Task_3\\processed_frames\\task3_o\\p\u001b[0m\n",
      "\n",
      "image 1/1 D:\\pranay cse\\IITh\\Task_3\\frames\\frame_0028.jpg: 640x384 11 persons, 26.4ms\n",
      "Speed: 4.3ms preprocess, 26.4ms inference, 16.7ms postprocess per image at shape (1, 3, 640, 384)\n",
      "Results saved to \u001b[1mD:\\pranay cse\\IITh\\Task_3\\processed_frames\\task3_o\\p\u001b[0m\n",
      "\n",
      "image 1/1 D:\\pranay cse\\IITh\\Task_3\\frames\\frame_0029.jpg: 640x384 13 persons, 1 handbag, 15.4ms\n",
      "Speed: 2.4ms preprocess, 15.4ms inference, 12.3ms postprocess per image at shape (1, 3, 640, 384)\n",
      "Results saved to \u001b[1mD:\\pranay cse\\IITh\\Task_3\\processed_frames\\task3_o\\p\u001b[0m\n",
      "\n",
      "image 1/1 D:\\pranay cse\\IITh\\Task_3\\frames\\frame_0030.jpg: 640x384 10 persons, 17.4ms\n",
      "Speed: 2.5ms preprocess, 17.4ms inference, 9.8ms postprocess per image at shape (1, 3, 640, 384)\n",
      "Results saved to \u001b[1mD:\\pranay cse\\IITh\\Task_3\\processed_frames\\task3_o\\p\u001b[0m\n",
      "\n",
      "image 1/1 D:\\pranay cse\\IITh\\Task_3\\frames\\frame_0031.jpg: 640x384 13 persons, 25.1ms\n",
      "Speed: 2.4ms preprocess, 25.1ms inference, 13.3ms postprocess per image at shape (1, 3, 640, 384)\n",
      "Results saved to \u001b[1mD:\\pranay cse\\IITh\\Task_3\\processed_frames\\task3_o\\p\u001b[0m\n",
      "\n",
      "image 1/1 D:\\pranay cse\\IITh\\Task_3\\frames\\frame_0032.jpg: 640x384 14 persons, 41.1ms\n",
      "Speed: 5.0ms preprocess, 41.1ms inference, 32.9ms postprocess per image at shape (1, 3, 640, 384)\n",
      "Results saved to \u001b[1mD:\\pranay cse\\IITh\\Task_3\\processed_frames\\task3_o\\p\u001b[0m\n",
      "\n",
      "image 1/1 D:\\pranay cse\\IITh\\Task_3\\frames\\frame_0033.jpg: 640x384 14 persons, 1 bus, 16.9ms\n",
      "Speed: 2.6ms preprocess, 16.9ms inference, 19.6ms postprocess per image at shape (1, 3, 640, 384)\n",
      "Results saved to \u001b[1mD:\\pranay cse\\IITh\\Task_3\\processed_frames\\task3_o\\p\u001b[0m\n",
      "\n",
      "image 1/1 D:\\pranay cse\\IITh\\Task_3\\frames\\frame_0034.jpg: 640x384 18 persons, 1 handbag, 14.8ms\n",
      "Speed: 2.6ms preprocess, 14.8ms inference, 16.3ms postprocess per image at shape (1, 3, 640, 384)\n",
      "Results saved to \u001b[1mD:\\pranay cse\\IITh\\Task_3\\processed_frames\\task3_o\\p\u001b[0m\n",
      "\n",
      "image 1/1 D:\\pranay cse\\IITh\\Task_3\\frames\\frame_0035.jpg: 640x384 13 persons, 1 umbrella, 24.7ms\n",
      "Speed: 8.8ms preprocess, 24.7ms inference, 17.0ms postprocess per image at shape (1, 3, 640, 384)\n",
      "Results saved to \u001b[1mD:\\pranay cse\\IITh\\Task_3\\processed_frames\\task3_o\\p\u001b[0m\n",
      "\n",
      "image 1/1 D:\\pranay cse\\IITh\\Task_3\\frames\\frame_0036.jpg: 640x384 13 persons, 1 bus, 14.3ms\n",
      "Speed: 2.1ms preprocess, 14.3ms inference, 13.6ms postprocess per image at shape (1, 3, 640, 384)\n",
      "Results saved to \u001b[1mD:\\pranay cse\\IITh\\Task_3\\processed_frames\\task3_o\\p\u001b[0m\n",
      "\n",
      "image 1/1 D:\\pranay cse\\IITh\\Task_3\\frames\\frame_0037.jpg: 640x384 13 persons, 17.2ms\n",
      "Speed: 2.6ms preprocess, 17.2ms inference, 17.3ms postprocess per image at shape (1, 3, 640, 384)\n",
      "Results saved to \u001b[1mD:\\pranay cse\\IITh\\Task_3\\processed_frames\\task3_o\\p\u001b[0m\n",
      "\n",
      "image 1/1 D:\\pranay cse\\IITh\\Task_3\\frames\\frame_0038.jpg: 640x384 11 persons, 17.5ms\n",
      "Speed: 2.8ms preprocess, 17.5ms inference, 14.2ms postprocess per image at shape (1, 3, 640, 384)\n",
      "Results saved to \u001b[1mD:\\pranay cse\\IITh\\Task_3\\processed_frames\\task3_o\\p\u001b[0m\n",
      "\n",
      "image 1/1 D:\\pranay cse\\IITh\\Task_3\\frames\\frame_0039.jpg: 640x384 10 persons, 1 bus, 16.5ms\n",
      "Speed: 2.8ms preprocess, 16.5ms inference, 11.5ms postprocess per image at shape (1, 3, 640, 384)\n",
      "Results saved to \u001b[1mD:\\pranay cse\\IITh\\Task_3\\processed_frames\\task3_o\\p\u001b[0m\n",
      "\n",
      "image 1/1 D:\\pranay cse\\IITh\\Task_3\\frames\\frame_0040.jpg: 640x384 12 persons, 31.1ms\n",
      "Speed: 2.9ms preprocess, 31.1ms inference, 17.7ms postprocess per image at shape (1, 3, 640, 384)\n",
      "Results saved to \u001b[1mD:\\pranay cse\\IITh\\Task_3\\processed_frames\\task3_o\\p\u001b[0m\n",
      "\n",
      "image 1/1 D:\\pranay cse\\IITh\\Task_3\\frames\\frame_0041.jpg: 640x384 13 persons, 19.8ms\n",
      "Speed: 3.5ms preprocess, 19.8ms inference, 13.7ms postprocess per image at shape (1, 3, 640, 384)\n",
      "Results saved to \u001b[1mD:\\pranay cse\\IITh\\Task_3\\processed_frames\\task3_o\\p\u001b[0m\n",
      "\n",
      "image 1/1 D:\\pranay cse\\IITh\\Task_3\\frames\\frame_0042.jpg: 640x384 11 persons, 1 handbag, 18.4ms\n",
      "Speed: 3.6ms preprocess, 18.4ms inference, 11.4ms postprocess per image at shape (1, 3, 640, 384)\n",
      "Results saved to \u001b[1mD:\\pranay cse\\IITh\\Task_3\\processed_frames\\task3_o\\p\u001b[0m\n",
      "\n",
      "image 1/1 D:\\pranay cse\\IITh\\Task_3\\frames\\frame_0043.jpg: 640x384 12 persons, 20.4ms\n",
      "Speed: 8.2ms preprocess, 20.4ms inference, 15.4ms postprocess per image at shape (1, 3, 640, 384)\n",
      "Results saved to \u001b[1mD:\\pranay cse\\IITh\\Task_3\\processed_frames\\task3_o\\p\u001b[0m\n",
      "\n",
      "image 1/1 D:\\pranay cse\\IITh\\Task_3\\frames\\frame_0044.jpg: 640x384 11 persons, 1 backpack, 36.6ms\n",
      "Speed: 4.8ms preprocess, 36.6ms inference, 41.6ms postprocess per image at shape (1, 3, 640, 384)\n",
      "Results saved to \u001b[1mD:\\pranay cse\\IITh\\Task_3\\processed_frames\\task3_o\\p\u001b[0m\n",
      "\n",
      "image 1/1 D:\\pranay cse\\IITh\\Task_3\\frames\\frame_0045.jpg: 640x384 11 persons, 2 backpacks, 18.4ms\n",
      "Speed: 3.2ms preprocess, 18.4ms inference, 14.2ms postprocess per image at shape (1, 3, 640, 384)\n",
      "Results saved to \u001b[1mD:\\pranay cse\\IITh\\Task_3\\processed_frames\\task3_o\\p\u001b[0m\n",
      "\n",
      "image 1/1 D:\\pranay cse\\IITh\\Task_3\\frames\\frame_0046.jpg: 640x384 16 persons, 29.5ms\n",
      "Speed: 5.5ms preprocess, 29.5ms inference, 15.4ms postprocess per image at shape (1, 3, 640, 384)\n",
      "Results saved to \u001b[1mD:\\pranay cse\\IITh\\Task_3\\processed_frames\\task3_o\\p\u001b[0m\n",
      "\n",
      "image 1/1 D:\\pranay cse\\IITh\\Task_3\\frames\\frame_0047.jpg: 640x384 15 persons, 20.6ms\n",
      "Speed: 5.8ms preprocess, 20.6ms inference, 13.7ms postprocess per image at shape (1, 3, 640, 384)\n",
      "Results saved to \u001b[1mD:\\pranay cse\\IITh\\Task_3\\processed_frames\\task3_o\\p\u001b[0m\n",
      "\n",
      "image 1/1 D:\\pranay cse\\IITh\\Task_3\\frames\\frame_0048.jpg: 640x384 11 persons, 1 handbag, 19.5ms\n",
      "Speed: 4.7ms preprocess, 19.5ms inference, 12.4ms postprocess per image at shape (1, 3, 640, 384)\n",
      "Results saved to \u001b[1mD:\\pranay cse\\IITh\\Task_3\\processed_frames\\task3_o\\p\u001b[0m\n",
      "\n",
      "image 1/1 D:\\pranay cse\\IITh\\Task_3\\frames\\frame_0049.jpg: 640x384 12 persons, 2 handbags, 42.5ms\n",
      "Speed: 4.5ms preprocess, 42.5ms inference, 31.1ms postprocess per image at shape (1, 3, 640, 384)\n",
      "Results saved to \u001b[1mD:\\pranay cse\\IITh\\Task_3\\processed_frames\\task3_o\\p\u001b[0m\n",
      "\n",
      "image 1/1 D:\\pranay cse\\IITh\\Task_3\\frames\\frame_0050.jpg: 640x384 16 persons, 1 traffic light, 30.9ms\n",
      "Speed: 5.6ms preprocess, 30.9ms inference, 26.7ms postprocess per image at shape (1, 3, 640, 384)\n",
      "Results saved to \u001b[1mD:\\pranay cse\\IITh\\Task_3\\processed_frames\\task3_o\\p\u001b[0m\n",
      "\n",
      "image 1/1 D:\\pranay cse\\IITh\\Task_3\\frames\\frame_0051.jpg: 640x384 12 persons, 1 backpack, 3 handbags, 22.9ms\n",
      "Speed: 5.4ms preprocess, 22.9ms inference, 16.6ms postprocess per image at shape (1, 3, 640, 384)\n",
      "Results saved to \u001b[1mD:\\pranay cse\\IITh\\Task_3\\processed_frames\\task3_o\\p\u001b[0m\n",
      "\n",
      "image 1/1 D:\\pranay cse\\IITh\\Task_3\\frames\\frame_0052.jpg: 640x384 13 persons, 2 backpacks, 22.7ms\n",
      "Speed: 5.2ms preprocess, 22.7ms inference, 34.3ms postprocess per image at shape (1, 3, 640, 384)\n",
      "Results saved to \u001b[1mD:\\pranay cse\\IITh\\Task_3\\processed_frames\\task3_o\\p\u001b[0m\n",
      "\n",
      "image 1/1 D:\\pranay cse\\IITh\\Task_3\\frames\\frame_0053.jpg: 640x384 14 persons, 1 backpack, 1 handbag, 21.0ms\n",
      "Speed: 4.1ms preprocess, 21.0ms inference, 29.0ms postprocess per image at shape (1, 3, 640, 384)\n",
      "Results saved to \u001b[1mD:\\pranay cse\\IITh\\Task_3\\processed_frames\\task3_o\\p\u001b[0m\n",
      "\n",
      "image 1/1 D:\\pranay cse\\IITh\\Task_3\\frames\\frame_0054.jpg: 640x384 15 persons, 1 handbag, 1 suitcase, 19.8ms\n",
      "Speed: 3.2ms preprocess, 19.8ms inference, 16.2ms postprocess per image at shape (1, 3, 640, 384)\n",
      "Results saved to \u001b[1mD:\\pranay cse\\IITh\\Task_3\\processed_frames\\task3_o\\p\u001b[0m\n",
      "\n",
      "image 1/1 D:\\pranay cse\\IITh\\Task_3\\frames\\frame_0055.jpg: 640x384 13 persons, 1 backpack, 1 handbag, 19.4ms\n",
      "Speed: 5.8ms preprocess, 19.4ms inference, 16.0ms postprocess per image at shape (1, 3, 640, 384)\n",
      "Results saved to \u001b[1mD:\\pranay cse\\IITh\\Task_3\\processed_frames\\task3_o\\p\u001b[0m\n",
      "\n",
      "image 1/1 D:\\pranay cse\\IITh\\Task_3\\frames\\frame_0056.jpg: 640x384 16 persons, 37.5ms\n",
      "Speed: 6.1ms preprocess, 37.5ms inference, 27.5ms postprocess per image at shape (1, 3, 640, 384)\n",
      "Results saved to \u001b[1mD:\\pranay cse\\IITh\\Task_3\\processed_frames\\task3_o\\p\u001b[0m\n",
      "\n",
      "image 1/1 D:\\pranay cse\\IITh\\Task_3\\frames\\frame_0057.jpg: 640x384 17 persons, 19.7ms\n",
      "Speed: 6.8ms preprocess, 19.7ms inference, 19.9ms postprocess per image at shape (1, 3, 640, 384)\n",
      "Results saved to \u001b[1mD:\\pranay cse\\IITh\\Task_3\\processed_frames\\task3_o\\p\u001b[0m\n",
      "\n",
      "image 1/1 D:\\pranay cse\\IITh\\Task_3\\frames\\frame_0058.jpg: 640x384 16 persons, 29.0ms\n",
      "Speed: 5.6ms preprocess, 29.0ms inference, 36.6ms postprocess per image at shape (1, 3, 640, 384)\n",
      "Results saved to \u001b[1mD:\\pranay cse\\IITh\\Task_3\\processed_frames\\task3_o\\p\u001b[0m\n",
      "\n",
      "image 1/1 D:\\pranay cse\\IITh\\Task_3\\frames\\frame_0059.jpg: 640x384 14 persons, 32.0ms\n",
      "Speed: 3.8ms preprocess, 32.0ms inference, 31.0ms postprocess per image at shape (1, 3, 640, 384)\n",
      "Results saved to \u001b[1mD:\\pranay cse\\IITh\\Task_3\\processed_frames\\task3_o\\p\u001b[0m\n",
      "\n",
      "image 1/1 D:\\pranay cse\\IITh\\Task_3\\frames\\frame_0060.jpg: 640x384 19 persons, 39.4ms\n",
      "Speed: 6.3ms preprocess, 39.4ms inference, 33.3ms postprocess per image at shape (1, 3, 640, 384)\n",
      "Results saved to \u001b[1mD:\\pranay cse\\IITh\\Task_3\\processed_frames\\task3_o\\p\u001b[0m\n"
     ]
    }
   ],
   "source": [
    "from ultralytics import YOLO\n",
    "import glob\n",
    "import os\n",
    "\n",
    "model = YOLO(r\"D:\\pranay cse\\IITh\\Task_2\\runs\\detect\\completed_training\\weights\\best.pt\")\n",
    "input_folder = \"frames\"\n",
    "output_folder = \"processed_frames\"\n",
    "os.makedirs(output_folder, exist_ok=True)\n",
    "image_paths = sorted(glob.glob(os.path.join(input_folder, \"*.jpg\")))\n",
    "for img_path in image_paths:\n",
    "    results = model.predict(\n",
    "        source=img_path,\n",
    "        save=True,\n",
    "        project=output_folder,\n",
    "        name=\"task3_op\",   \n",
    "        exist_ok=True\n",
    "    )"
   ]
  },
  {
   "cell_type": "code",
   "execution_count": 6,
   "id": "bfcfbdb6-1dc1-4dc3-9a52-af84dd863b38",
   "metadata": {},
   "outputs": [
    {
     "name": "stderr",
     "output_type": "stream",
     "text": [
      "ffmpeg version 8.0 Copyright (c) 2000-2025 the FFmpeg developers\n",
      "  built with clang version 21.1.2\n",
      "  configuration: --prefix=/d/bld/ffmpeg_1758923948582/_h_env/Library --cc=clang.exe --cxx=clang++.exe --nm=llvm-nm --ar=llvm-ar --disable-doc --enable-openssl --enable-demuxer=dash --enable-hardcoded-tables --enable-libfreetype --enable-libharfbuzz --enable-libfontconfig --enable-libopenh264 --enable-libdav1d --ld=lld-link --target-os=win64 --enable-cross-compile --toolchain=msvc --host-cc=clang.exe --extra-libs=ucrt.lib --extra-libs=vcruntime.lib --extra-libs=oldnames.lib --strip=llvm-strip --disable-stripping --host-extralibs= --disable-libopenvino --enable-gpl --enable-libx264 --enable-libx265 --enable-libmp3lame --enable-libaom --enable-libsvtav1 --enable-libxml2 --enable-pic --enable-shared --disable-static --enable-version3 --enable-zlib --enable-libvorbis --enable-libopus --enable-librsvg --enable-ffplay --enable-vulkan --enable-libshaderc --pkg-config=/d/bld/ffmpeg_1758923948582/_build_env/Library/bin/pkg-config\n",
      "  libavutil      60.  8.100 / 60.  8.100\n",
      "  libavcodec     62. 11.100 / 62. 11.100\n",
      "  libavformat    62.  3.100 / 62.  3.100\n",
      "  libavdevice    62.  1.100 / 62.  1.100\n",
      "  libavfilter    11.  4.100 / 11.  4.100\n",
      "  libswscale      9.  1.100 /  9.  1.100\n",
      "  libswresample   6.  1.100 /  6.  1.100\n",
      "Input #0, image2, from 'processed_frames/task3_op/frame_%04d.jpg':\n",
      "  Duration: 00:00:12.00, start: 0.000000, bitrate: N/A\n",
      "  Stream #0:0: Video: mjpeg (Baseline), yuvj420p(pc, bt470bg/unknown/unknown), 1080x1920 [SAR 1:1 DAR 9:16], 5 fps, 5 tbr, 5 tbn\n",
      "Stream mapping:\n",
      "  Stream #0:0 -> #0:0 (mjpeg (native) -> h264 (libx264))\n",
      "Press [q] to stop, [?] for help\n",
      "[swscaler @ 00000211F8C100C0] deprecated pixel format used, make sure you did set range correctly\n",
      "[libx264 @ 00000211F90B8D00] using SAR=1/1\n",
      "[libx264 @ 00000211F90B8D00] using cpu capabilities: MMX2 SSE2Fast SSSE3 SSE4.2 AVX FMA3 BMI2 AVX2\n",
      "[libx264 @ 00000211F90B8D00] profile High, level 4.0, 4:2:0, 8-bit\n",
      "[libx264 @ 00000211F90B8D00] 264 - core 164 r3095 baee400 - H.264/MPEG-4 AVC codec - Copyleft 2003-2022 - http://www.videolan.org/x264.html - options: cabac=1 ref=3 deblock=1:0:0 analyse=0x3:0x113 me=hex subme=7 psy=1 psy_rd=1.00:0.00 mixed_ref=1 me_range=16 chroma_me=1 trellis=1 8x8dct=1 cqm=0 deadzone=21,11 fast_pskip=1 chroma_qp_offset=-2 threads=24 lookahead_threads=4 sliced_threads=0 nr=0 decimate=1 interlaced=0 bluray_compat=0 constrained_intra=0 bframes=3 b_pyramid=2 b_adapt=1 b_bias=0 direct=1 weightb=1 open_gop=0 weightp=2 keyint=250 keyint_min=5 scenecut=40 intra_refresh=0 rc_lookahead=40 rc=crf mbtree=1 crf=23.0 qcomp=0.60 qpmin=0 qpmax=69 qpstep=4 ip_ratio=1.40 aq=1:1.00\n",
      "Output #0, mp4, to 'output_video.mp4':\n",
      "  Metadata:\n",
      "    encoder         : Lavf62.3.100\n",
      "  Stream #0:0: Video: h264 (avc1 / 0x31637661), yuv420p(pc, bt470bg/unknown/unknown, progressive), 1080x1920 [SAR 1:1 DAR 9:16], q=2-31, 5 fps, 10240 tbn\n",
      "    Metadata:\n",
      "      encoder         : Lavc62.11.100 libx264\n",
      "    Side data:\n",
      "      cpb: bitrate max/min/avg: 0/0/0 buffer size: 0 vbv_delay: N/A\n",
      "frame=    0 fps=0.0 q=0.0 size=       0KiB time=N/A bitrate=N/A speed=N/A elapsed=0:00:00.51    \n",
      "frame=    0 fps=0.0 q=0.0 size=       0KiB time=N/A bitrate=N/A speed=N/A elapsed=0:00:01.03    \n",
      "frame=    5 fps=3.2 q=23.0 size=     512KiB time=00:00:00.60 bitrate=6991.1kbits/s speed=0.386x elapsed=0:00:01.55    \n",
      "frame=   11 fps=5.3 q=23.0 size=    1024KiB time=00:00:01.80 bitrate=4660.6kbits/s speed=0.872x elapsed=0:00:02.06    \n",
      "frame=   26 fps= 10 q=23.0 size=    2560KiB time=00:00:04.80 bitrate=4369.1kbits/s speed=1.86x elapsed=0:00:02.57    \n",
      "frame=   31 fps= 10 q=23.0 size=    3328KiB time=00:00:05.80 bitrate=4700.6kbits/s speed=1.88x elapsed=0:00:03.08    \n",
      "frame=   38 fps= 11 q=-1.0 size=    4096KiB time=00:00:07.20 bitrate=4660.4kbits/s speed=2.01x elapsed=0:00:03.58    \n",
      "frame=   50 fps= 12 q=-1.0 size=    5376KiB time=00:00:09.60 bitrate=4587.6kbits/s speed=2.35x elapsed=0:00:04.08    \n",
      "frame=   58 fps= 13 q=-1.0 size=    6144KiB time=00:00:11.20 bitrate=4493.9kbits/s speed=2.44x elapsed=0:00:04.58    \n",
      "[out#0/mp4 @ 00000211F4DD4040] video:6720KiB audio:0KiB subtitle:0KiB other streams:0KiB global headers:0KiB muxing overhead: 0.023846%\n",
      "frame=   60 fps= 13 q=-1.0 Lsize=    6722KiB time=00:00:11.60 bitrate=4747.1kbits/s speed=2.52x elapsed=0:00:04.60    \n",
      "[libx264 @ 00000211F90B8D00] frame I:1     Avg QP:16.26  size:193522\n",
      "[libx264 @ 00000211F90B8D00] frame P:15    Avg QP:16.24  size:134330\n",
      "[libx264 @ 00000211F90B8D00] frame B:44    Avg QP:18.80  size:106193\n",
      "[libx264 @ 00000211F90B8D00] consecutive B-frames:  1.7%  0.0%  5.0% 93.3%\n",
      "[libx264 @ 00000211F90B8D00] mb I  I16..4: 37.9% 50.3% 11.8%\n",
      "[libx264 @ 00000211F90B8D00] mb P  I16..4: 20.1% 33.4%  8.9%  P16..4: 11.4%  8.0%  6.9%  0.0%  0.0%    skip:11.3%\n",
      "[libx264 @ 00000211F90B8D00] mb B  I16..4:  4.6% 13.1%  6.5%  B16..8: 20.1% 12.7%  8.3%  direct:12.7%  skip:22.1%  L0:47.6% L1:36.8% BI:15.7%\n",
      "[libx264 @ 00000211F90B8D00] 8x8 transform intra:53.6% inter:79.6%\n",
      "[libx264 @ 00000211F90B8D00] coded y,uvDC,uvAC intra: 55.8% 76.8% 41.1% inter: 32.3% 50.6% 18.2%\n",
      "[libx264 @ 00000211F90B8D00] i16 v,h,dc,p: 63% 26% 10%  1%\n",
      "[libx264 @ 00000211F90B8D00] i8 v,h,dc,ddl,ddr,vr,hd,vl,hu: 30% 21% 35%  3%  2%  2%  2%  2%  4%\n",
      "[libx264 @ 00000211F90B8D00] i4 v,h,dc,ddl,ddr,vr,hd,vl,hu: 50% 22% 10%  3%  3%  4%  3%  3%  3%\n",
      "[libx264 @ 00000211F90B8D00] i8c dc,h,v,p: 26% 26% 41%  6%\n",
      "[libx264 @ 00000211F90B8D00] Weighted P-Frames: Y:6.7% UV:6.7%\n",
      "[libx264 @ 00000211F90B8D00] ref P L0: 47.0%  8.9% 23.7% 19.2%  1.3%\n",
      "[libx264 @ 00000211F90B8D00] ref B L0: 78.3% 16.2%  5.6%\n",
      "[libx264 @ 00000211F90B8D00] ref B L1: 92.0%  8.0%\n",
      "[libx264 @ 00000211F90B8D00] kb/s:4587.30\n"
     ]
    }
   ],
   "source": [
    "!ffmpeg -framerate 5 -i processed_frames/task3_op/frame_%04d.jpg -c:v libx264 -pix_fmt yuv420p output_video.mp4"
   ]
  },
  {
   "cell_type": "code",
   "execution_count": null,
   "id": "0503c4a4-97f1-48a7-80b6-948b8c9db61a",
   "metadata": {},
   "outputs": [],
   "source": []
  }
 ],
 "metadata": {
  "kernelspec": {
   "display_name": "YOLO Environment",
   "language": "python",
   "name": "yolovenv"
  },
  "language_info": {
   "codemirror_mode": {
    "name": "ipython",
    "version": 3
   },
   "file_extension": ".py",
   "mimetype": "text/x-python",
   "name": "python",
   "nbconvert_exporter": "python",
   "pygments_lexer": "ipython3",
   "version": "3.10.19"
  }
 },
 "nbformat": 4,
 "nbformat_minor": 5
}
